<?xml version="1.0" standalone="no"?>
<!DOCTYPE svg PUBLIC "-//W3C//DTD SVG 20010904//EN"
 "http://www.w3.org/TR/2001/REC-SVG-20010904/DTD/svg10.dtd">
<svg version="1.0" xmlns="http://www.w3.org/2000/svg"
 width="512.000000pt" height="512.000000pt" viewBox="0 0 512.000000 512.000000"
 preserveAspectRatio="xMidYMid meet">

<g transform="translate(0.000000,512.000000) scale(0.100000,-0.100000)"
fill="#000000" stroke="none">
<path d="M1310 4579 c-286 -33 -542 -161 -746 -371 -98 -102 -158 -185 -217
-303 -97 -195 -131 -348 -130 -580 3 -468 185 -909 511 -1243 131 -135 1778
-1540 1813 -1547 20 -5 41 -1 63 12 58 31 1705 1453 1806 1559 126 132 215
259 300 429 114 227 169 429 190 690 31 388 -91 728 -359 996 -316 315 -752
435 -1185 324 -231 -58 -395 -160 -634 -390 l-163 -158 -132 130 c-158 154
-229 214 -329 277 -152 94 -329 154 -521 175 -108 12 -159 12 -267 0z m345
-228 c119 -25 231 -69 335 -133 67 -40 132 -98 300 -263 226 -223 246 -237
305 -215 16 6 124 105 240 219 164 163 228 219 295 260 346 211 768 202 1115
-24 75 -49 218 -192 268 -268 136 -205 184 -386 174 -652 -15 -397 -168 -753
-445 -1039 -85 -88 -1664 -1446 -1681 -1446 -16 0 -1603 1361 -1679 1440 -277
285 -434 649 -449 1045 -6 166 4 254 42 380 113 369 443 649 835 708 76 12
262 5 345 -12z"/>
</g>
</svg>
