<?xml version="1.0" standalone="no"?>
<!DOCTYPE svg PUBLIC "-//W3C//DTD SVG 20010904//EN"
 "http://www.w3.org/TR/2001/REC-SVG-20010904/DTD/svg10.dtd">
<svg version="1.0" xmlns="http://www.w3.org/2000/svg"
 width="512.000000pt" height="512.000000pt" viewBox="0 0 512.000000 512.000000"
 preserveAspectRatio="xMidYMid meet">

<g transform="translate(0.000000,512.000000) scale(0.100000,-0.100000)"
fill="#000000" stroke="none">
<path d="M2340 4921 c-470 -126 -484 -132 -520 -206 -25 -52 -25 -106 0 -197
11 -39 18 -73 17 -74 -2 -2 -223 -62 -492 -134 -305 -82 -514 -143 -552 -162
-125 -61 -213 -178 -213 -284 0 -52 99 -436 121 -472 17 -27 62 -52 94 -52 15
0 54 7 87 16 33 8 63 12 67 9 3 -4 68 -678 143 -1499 117 -1279 140 -1501 158
-1549 30 -79 104 -158 188 -199 l67 -33 1185 0 1185 0 67 33 c84 41 158 120
188 199 19 50 42 279 171 1680 105 1146 146 1629 139 1647 -5 14 -18 30 -29
35 -13 8 -372 11 -1143 12 -967 0 -1117 2 -1078 14 25 8 542 147 1150 309 608
163 1118 301 1134 308 36 14 66 63 66 107 0 42 -97 404 -121 452 -23 46 -80
96 -138 122 -33 15 -74 21 -146 24 l-100 4 -500 -134 c-343 -92 -502 -131
-506 -123 -4 6 -12 36 -19 66 -15 67 -40 118 -72 147 -31 30 -90 53 -130 52
-18 0 -229 -53 -468 -118z m516 -123 c19 -70 20 -78 5 -82 -94 -28 -844 -226
-855 -226 -15 0 -52 128 -44 152 5 13 820 238 853 235 15 -2 24 -18 41 -79z
m1370 52 c31 -15 46 -31 57 -58 18 -49 91 -331 86 -335 -2 -2 -598 -162 -1324
-356 -726 -195 -1520 -407 -1764 -473 -244 -65 -447 -115 -451 -111 -12 13
-90 317 -90 350 0 41 58 106 123 137 28 14 684 194 1457 401 773 207 1477 396
1565 420 188 51 273 57 341 25z m54 -1327 c0 -5 -65 -711 -144 -1571 l-144
-1563 -29 -47 c-20 -33 -44 -54 -82 -74 l-53 -28 -1138 0 -1138 0 -53 28 c-38
20 -62 41 -82 74 l-29 46 -139 1513 c-76 832 -138 1514 -136 1515 1 1 92 27
202 57 l200 55 1383 1 c760 1 1382 -2 1382 -6z"/>
<path d="M1540 2975 l-24 -26 82 -902 c46 -496 83 -908 82 -915 0 -7 11 -24
25 -37 24 -25 25 -25 225 -25 187 0 201 1 220 20 14 14 20 33 20 61 0 23 -36
436 -80 918 -69 750 -83 880 -99 901 l-18 25 -205 3 -204 2 -24 -25z m320
-148 c0 -15 138 -1528 143 -1569 l4 -28 -87 0 -86 0 -72 793 c-40 435 -72 798
-72 805 0 18 170 17 170 -1z"/>
<path d="M2473 2978 c-21 -23 -21 -27 -25 -946 l-3 -924 24 -19 c21 -17 41
-19 220 -19 193 0 198 0 219 23 l22 23 2 921 c3 893 2 921 -16 942 -18 20 -28
21 -221 21 -196 0 -202 -1 -222 -22z m307 -521 c0 -211 -3 -573 -7 -805 l-6
-422 -85 0 -85 0 6 602 c4 331 7 693 7 805 l0 203 85 0 85 0 0 -383z"/>
<path d="M3335 2980 c-23 -26 -17 33 -111 -997 l-79 -862 25 -26 24 -25 204 2
205 3 18 25 c15 21 30 160 101 937 l83 911 -24 26 -24 26 -202 0 c-190 0 -203
-1 -220 -20z m295 -167 c0 -16 -32 -370 -70 -787 -39 -418 -70 -768 -70 -778
0 -16 -10 -18 -85 -18 -84 0 -85 0 -85 25 0 14 32 367 70 786 39 418 70 769
70 780 0 17 8 19 85 19 l85 0 0 -27z"/>
</g>
</svg>
