<?xml version="1.0" standalone="no"?>
<!DOCTYPE svg PUBLIC "-//W3C//DTD SVG 20010904//EN"
 "http://www.w3.org/TR/2001/REC-SVG-20010904/DTD/svg10.dtd">
<svg version="1.0" xmlns="http://www.w3.org/2000/svg"
 width="512.000000pt" height="512.000000pt" viewBox="0 0 512.000000 512.000000"
 preserveAspectRatio="xMidYMid meet">

<g transform="translate(0.000000,512.000000) scale(0.100000,-0.100000)"
fill="#000000" stroke="none">
<path d="M2498 4154 c-15 -8 -33 -24 -40 -37 -10 -17 -14 -302 -18 -1364 l-5
-1341 -290 360 c-159 198 -303 371 -318 384 -51 43 -141 24 -172 -36 -20 -38
-19 -90 2 -120 51 -75 835 -1038 848 -1044 21 -8 89 -8 110 0 13 6 797 969
848 1044 21 30 22 82 2 120 -31 60 -121 79 -172 36 -15 -13 -158 -186 -318
-384 l-290 -360 -5 1341 c-4 1065 -8 1347 -18 1364 -27 49 -109 67 -164 37z"/>
</g>
</svg>
