<?xml version="1.0" standalone="no"?>
<!DOCTYPE svg PUBLIC "-//W3C//DTD SVG 20010904//EN"
 "http://www.w3.org/TR/2001/REC-SVG-20010904/DTD/svg10.dtd">
<svg version="1.0" xmlns="http://www.w3.org/2000/svg"
 width="512.000000pt" height="512.000000pt" viewBox="0 0 512.000000 512.000000"
 preserveAspectRatio="xMidYMid meet">

<g transform="translate(0.000000,512.000000) scale(0.100000,-0.100000)"
fill="#000000" stroke="none">
<path d="M2321 5110 c-868 -84 -1644 -610 -2037 -1382 -139 -273 -221 -536
-266 -853 -20 -140 -17 -504 6 -660 39 -278 121 -541 247 -794 249 -502 647
-900 1150 -1150 815 -406 1779 -350 2539 147 297 194 579 482 771 788 74 116
184 342 234 478 51 138 110 376 131 531 23 157 26 521 6 660 -59 415 -191 769
-410 1099 -92 140 -185 254 -315 385 -399 403 -895 653 -1462 737 -122 18
-466 26 -594 14z m574 -1625 c233 -6 515 -31 585 -51 120 -35 235 -120 279
-208 42 -86 81 -403 81 -664 0 -250 -41 -585 -80 -662 -47 -93 -154 -176 -270
-210 -268 -80 -1592 -80 -1860 0 -116 34 -223 117 -270 210 -39 77 -80 413
-80 660 0 271 41 588 87 673 51 92 176 180 297 207 122 27 729 61 961 53 50
-1 171 -5 270 -8z"/>
<path d="M2250 2560 l0 -492 48 29 c146 86 751 459 751 463 0 4 -605 377 -751
463 l-48 29 0 -492z"/>
</g>
</svg>
